<?xml version="1.0" encoding="UTF-8" standalone="no"?>
<!-- Created with Inkscape (http://www.inkscape.org/) -->

<svg
   width="264.58334mm"
   height="264.58334mm"
   viewBox="0 0 264.58334 264.58335"
   version="1.1"
   id="svg5"
   inkscape:version="1.1.1 (3bf5ae0d25, 2021-09-20)"
   sodipodi:docname="ZEF.svg"
   xmlns:inkscape="http://www.inkscape.org/namespaces/inkscape"
   xmlns:sodipodi="http://sodipodi.sourceforge.net/DTD/sodipodi-0.dtd"
   xmlns="http://www.w3.org/2000/svg"
   xmlns:svg="http://www.w3.org/2000/svg">
  <sodipodi:namedview
     id="namedview7"
     pagecolor="#ffffff"
     bordercolor="#666666"
     borderopacity="1.0"
     inkscape:pageshadow="2"
     inkscape:pageopacity="0.0"
     inkscape:pagecheckerboard="0"
     inkscape:document-units="mm"
     showgrid="false"
     inkscape:zoom="0.32026164"
     inkscape:cx="273.21411"
     inkscape:cy="607.31593"
     inkscape:window-width="1920"
     inkscape:window-height="991"
     inkscape:window-x="-9"
     inkscape:window-y="-9"
     inkscape:window-maximized="1"
     inkscape:current-layer="layer1" />
  <defs
     id="defs2" />
  <g
     inkscape:label="Calque 1"
     inkscape:groupmode="layer"
     id="layer1"
     transform="translate(-609.85786,-20.419425)">
    <path
       style="color:#000000;opacity:1;fill:#fddd04;fill-opacity:1;stroke-width:14.9166;stroke-linecap:round;stroke-linejoin:round;stroke-dashoffset:6.67087;-inkscape-stroke:none;paint-order:stroke fill markers"
       d="m 742.80412,24.014486 c -70.63174,0 -128.05801,57.425591 -128.05801,128.056514 0,70.63092 57.42627,128.04327 128.05801,128.04327 70.63174,0 128.04483,-57.41235 128.04483,-128.04327 0,-70.630923 -57.41309,-128.056514 -128.04483,-128.056514 z"
       id="path66333"
       sodipodi:nodetypes="sssss" />
    <path
       id="path40732"
       style="color:#000000;opacity:1;fill:#0b6031;fill-opacity:1;stroke-width:6.27424;stroke-linecap:round;stroke-linejoin:round;stroke-dashoffset:6.67087;-inkscape-stroke:none;paint-order:stroke fill markers"
       d="m 742.15442,20.419425 c -72.84948,0 -132.29656,59.449371 -132.29656,132.298145 0,72.84884 59.44857,132.28519 132.29656,132.28519 72.84815,0 132.28677,-59.43799 132.28677,-132.28519 0,-72.847148 -59.43712,-132.298145 -132.28677,-132.298145 z m 0.64842,6.254366 c 69.10105,0 125.38703,56.295977 125.38703,125.395329 0,69.09934 -56.28681,125.38885 -125.38703,125.38885 -69.10005,0 -125.40014,-56.28865 -125.40014,-125.38885 0,-69.100215 56.29926,-125.395329 125.40014,-125.395329 z" />
    <path
       id="path40564"
       style="color:#000000;opacity:1;fill:#0b6031;fill-opacity:1;stroke-width:13.8033;stroke-linecap:round;stroke-linejoin:round;stroke-dashoffset:6.67087;-inkscape-stroke:none;paint-order:stroke fill markers"
       d="m 742.80272,33.569886 c -65.36008,0 -118.50026,53.139928 -118.50026,118.499354 0,65.35942 53.14018,118.48902 118.50026,118.48902 65.36025,0 118.48733,-53.1296 118.48733,-118.48902 0,-65.359426 -53.12708,-118.499354 -118.48733,-118.499354 z m -2.45618,13.48222 h 0.13074 0.16278 c 1.02149,0 2.0105,0.108735 2.96674,0.326074 0.97799,0.217337 1.93402,0.521411 2.86856,0.912595 v 7.628383 c -0.65199,-0.869318 -1.47763,-1.532091 -2.47737,-1.988486 -0.9997,-0.456388 -2.04286,-0.684705 -3.12952,-0.684705 -1.95603,0 -3.54288,0.662782 -4.75992,1.988487 -1.19533,1.303975 -1.79317,2.912466 -1.79317,4.824971 0,1.934226 0.60865,3.531386 1.82573,4.791896 1.23879,1.26051 2.84732,1.890819 4.82502,1.890819 1.04321,0 2.05387,-0.228314 3.03186,-0.684704 0.97799,-0.478126 1.80364,-1.119256 2.47737,-1.923373 v 7.628383 c -0.58678,0.195588 -1.14083,0.35895 -1.66243,0.48937 -0.5216,0.152128 -1.03231,0.282516 -1.53221,0.391184 -0.3911,0.08692 -0.79311,0.151877 -1.20612,0.195334 -0.39111,0.04346 -0.80445,0.06511 -1.23921,0.06511 -1.71694,0 -3.36822,-0.304074 -4.95473,-0.912596 -1.5648,-0.630256 -2.98881,-1.521346 -4.27106,-2.673191 -1.34743,-1.217044 -2.34676,-2.608048 -2.99878,-4.17282 -0.63028,-1.586505 -0.94568,-3.292407 -0.94568,-5.117973 0,-1.673435 0.30456,-3.292753 0.91312,-4.857527 0.63024,-1.56477 1.53211,-2.944955 2.70578,-4.140264 1.17354,-1.195313 2.55328,-2.140512 4.1398,-2.835969 1.58651,-0.717184 3.22751,-1.097534 4.9227,-1.141002 z m -37.67161,0.619591 h 14.11594 v 5.411493 h -7.72666 v 4.107194 h 7.00939 v 5.41149 h -7.00939 v 9.649423 h -6.38928 z m 54.40133,0 h 6.38979 l 11.70317,15.02836 h 0.0656 v -15.02836 h 6.38928 v 24.5796 h -6.38928 L 763.53117,57.190384 h -0.0651 v 15.060913 h -6.38979 z M 658.71948,78.936082 H 826.87975 A 111.59155,111.59021 0 0 1 847.83454,114.5526 H 637.76468 a 111.59155,111.59021 0 0 1 20.9548,-35.616518 z m 9.92342,2.951722 a 0.96783135,0.96781975 0 0 0 -0.44545,0.108002 c -1.0697,0.554515 -1.61633,1.676416 -1.97094,3.048873 -0.21897,0.847445 -0.2787,1.812038 -0.12247,2.783259 -0.89691,-0.11011 -1.78569,-0.07756 -2.59313,0.09146 -1.34412,0.281212 -2.52924,0.81668 -3.12849,1.904255 a 0.96783135,0.96781975 0 0 0 0.0646,1.034551 c 1.0042,1.385651 3.14584,2.228254 6.08232,1.750775 -1.02616,6.126313 -2.91188,9.497891 -5.15059,11.947451 a 0.96783135,0.96781975 0 0 0 0.8015,1.61642 c 0.55841,-0.0502 1.19858,-0.15809 1.84174,-0.33848 -0.15308,0.47578 -0.31091,0.95291 -0.41444,1.41592 a 0.96783135,0.96781975 0 0 0 1.20044,1.14462 c 0.51951,-0.14255 1.00131,-0.35115 1.4609,-0.59014 0.0565,0.49059 0.13887,0.97298 0.26561,1.42729 0.27042,0.96965 0.72497,1.90284 1.6552,2.39672 a 0.96783135,0.96781975 0 0 0 0.90692,0 c 0.9301,-0.4939 1.38465,-1.42703 1.6552,-2.39672 0.12674,-0.45432 0.20852,-0.93669 0.26561,-1.42729 0.45991,0.23899 0.94132,0.44759 1.4609,0.59014 a 0.96783135,0.96781975 0 0 0 1.20044,-1.14462 c -0.10353,-0.46304 -0.26073,-0.94014 -0.41445,-1.41592 0.64312,0.18039 1.28346,0.28803 1.84175,0.33848 a 0.96783135,0.96781975 0 0 0 0.8015,-1.61642 c -2.23872,-2.44956 -4.12455,-5.821138 -5.15059,-11.947451 2.9365,0.477466 5.07813,-0.365142 6.08232,-1.750775 a 0.96783135,0.96781975 0 0 0 0.0646,-1.034551 c -0.59918,-1.087575 -1.78435,-1.623056 -3.12849,-1.904255 -0.80754,-0.168963 -1.69615,-0.201446 -2.59312,-0.09146 0.15623,-0.971221 0.0965,-1.935814 -0.12247,-2.783259 -0.3545,-1.372457 -0.90124,-2.494385 -1.97094,-3.048873 a 0.96783135,0.96781975 0 0 0 -0.44545,-0.108002 z m 36.75331,0 a 0.96783135,0.96781975 0 0 0 -0.44545,0.10852 c -1.0697,0.554499 -1.61626,1.676428 -1.97094,3.048871 -0.21897,0.847445 -0.2787,1.811527 -0.12247,2.782743 -0.89703,-0.110049 -1.78556,-0.07755 -2.59312,0.09146 -1.34414,0.281212 -2.52982,0.81668 -3.12901,1.904255 a 0.96783135,0.96781975 0 0 0 0.0646,1.034551 c 1.00414,1.385657 3.14583,2.228244 6.08232,1.750775 -1.02609,6.126308 -2.91135,9.497891 -5.15007,11.947451 a 0.96783135,0.96781975 0 0 0 0.8015,1.61642 c 0.55841,-0.0508 1.19812,-0.15803 1.84123,-0.33848 -0.15372,0.47578 -0.3104,0.95291 -0.41393,1.41592 a 0.96783135,0.96781975 0 0 0 1.20044,1.1441 c 0.51952,-0.14249 1.00131,-0.35064 1.4609,-0.58962 0.0565,0.49057 0.13888,0.973 0.26561,1.42729 0.27042,0.96966 0.72503,1.90284 1.6552,2.39672 a 0.96783135,0.96781975 0 0 0 0.90692,0 c 0.93023,-0.4939 1.38478,-1.42704 1.6552,-2.39672 0.12674,-0.45432 0.20851,-0.9367 0.26561,-1.42729 0.45928,0.23898 0.94126,0.44714 1.4609,0.58962 a 0.96783135,0.96781975 0 0 0 1.19992,-1.1441 c -0.10353,-0.46303 -0.2602,-0.94014 -0.41392,-1.41592 0.64318,0.18038 1.28302,0.28797 1.84123,0.33848 a 0.96783135,0.96781975 0 0 0 0.80202,-1.61642 c -2.23866,-2.44956 -4.12443,-5.821143 -5.15059,-11.947451 2.93649,0.477469 5.07818,-0.365132 6.08231,-1.750775 a 0.96783135,0.96781975 0 0 0 0.0646,-1.034551 c -0.59919,-1.087575 -1.78435,-1.623051 -3.12849,-1.904255 -0.80749,-0.168963 -1.69616,-0.201456 -2.59313,-0.09146 0.15623,-0.971216 0.0965,-1.935298 -0.12247,-2.782743 -0.3545,-1.372443 -0.9017,-2.494398 -1.97146,-3.048871 a 0.96783135,0.96781975 0 0 0 -0.44545,-0.10852 z m 36.7528,0 a 0.96783135,0.96781975 0 0 0 -0.44545,0.108002 c -1.0697,0.554515 -1.61638,1.676422 -1.97094,3.048873 -0.21897,0.84745 -0.2787,1.812046 -0.12248,2.783259 -0.89697,-0.110049 -1.78549,-0.07756 -2.59312,0.09146 -1.34414,0.281212 -2.52942,0.816677 -3.12849,1.904255 a 0.96783135,0.96781975 0 0 0 0.0646,1.034551 c 1.00406,1.385664 3.14582,2.228244 6.08231,1.750775 -1.02616,6.126313 -2.91134,9.497891 -5.15007,11.947451 a 0.96783135,0.96781975 0 0 0 0.8015,1.61642 c 0.55841,-0.0502 1.19812,-0.15803 1.84123,-0.33848 -0.15372,0.47578 -0.31041,0.9529 -0.41393,1.41592 a 0.96783135,0.96781975 0 0 0 1.19993,1.1441 c 0.51951,-0.14249 1.00182,-0.35063 1.46141,-0.58962 0.0565,0.49059 0.13836,0.973 0.2651,1.42729 0.27042,0.96966 0.72504,1.90284 1.6552,2.39672 a 0.96783135,0.96781975 0 0 0 0.90743,0 c 0.93016,-0.4939 1.38472,-1.42704 1.6552,-2.39672 0.12674,-0.45432 0.20801,-0.93668 0.2651,-1.42729 0.45928,0.23899 0.94184,0.44714 1.46141,0.58962 a 0.96783135,0.96781975 0 0 0 1.19993,-1.1441 c -0.10353,-0.46303 -0.26021,-0.94014 -0.41393,-1.41592 0.64311,0.18039 1.28307,0.28797 1.84123,0.33848 a 0.96783135,0.96781975 0 0 0 0.80202,-1.61642 c -2.23867,-2.44957 -4.12449,-5.821138 -5.15059,-11.947451 2.93642,0.47753 5.07823,-0.365132 6.08231,-1.750775 a 0.96783135,0.96781975 0 0 0 0.0646,-1.034551 c -0.59919,-1.087578 -1.78435,-1.623056 -3.12849,-1.904255 -0.80756,-0.168963 -1.69615,-0.201446 -2.59312,-0.09146 0.15622,-0.971213 0.0965,-1.935809 -0.12248,-2.783259 -0.35449,-1.372451 -0.90117,-2.49439 -1.97094,-3.048873 a 0.96783135,0.96781975 0 0 0 -0.44545,-0.108002 z m 36.75331,0 a 0.96783135,0.96781975 0 0 0 -0.44545,0.108002 c -1.0697,0.554515 -1.61632,1.676424 -1.97094,3.048873 -0.21898,0.84745 -0.2787,1.812043 -0.12247,2.783259 -0.89691,-0.110049 -1.7857,-0.07756 -2.59313,0.09146 -1.34414,0.281212 -2.5293,0.81668 -3.12849,1.904255 a 0.96783135,0.96781975 0 0 0 0.0646,1.034551 c 1.00426,1.385664 3.14576,2.228236 6.08231,1.750775 -1.0261,6.126313 -2.91193,9.497891 -5.15059,11.947451 a 0.96783135,0.96781975 0 0 0 0.80202,1.61642 c 0.5584,-0.0502 1.19812,-0.15803 1.84123,-0.33848 -0.15372,0.47578 -0.31039,0.95291 -0.41392,1.41592 a 0.96783135,0.96781975 0 0 0 1.19992,1.1441 c 0.51951,-0.14249 1.00136,-0.35063 1.4609,-0.58962 0.0565,0.49059 0.13887,0.973 0.26561,1.42729 0.27042,0.96966 0.72497,1.90284 1.6552,2.39672 a 0.96783135,0.96781975 0 0 0 0.90692,0 c 0.93016,-0.4939 1.38516,-1.42704 1.65571,-2.39672 0.12674,-0.45432 0.20801,-0.93669 0.2651,-1.42729 0.45991,0.23899 0.94126,0.44714 1.4609,0.58962 a 0.96783135,0.96781975 0 0 0 1.20044,-1.1441 c -0.10353,-0.46303 -0.26021,-0.94013 -0.41393,-1.41592 0.64311,0.18039 1.28288,0.28798 1.84123,0.33848 a 0.96783135,0.96781975 0 0 0 0.8015,-1.61642 c -2.23872,-2.44956 -4.12449,-5.821138 -5.15059,-11.947451 2.93649,0.477469 5.07864,-0.365132 6.08284,-1.750775 a 0.96783135,0.96781975 0 0 0 0.0646,-1.034551 c -0.59919,-1.087575 -1.78487,-1.623056 -3.12901,-1.904255 -0.8075,-0.168963 -1.69615,-0.201456 -2.59312,-0.09146 0.15623,-0.971216 0.0965,-1.935809 -0.12247,-2.783259 -0.3545,-1.372449 -0.90118,-2.494385 -1.97094,-3.048873 a 0.96783135,0.96781975 0 0 0 -0.44545,-0.108002 z m 36.75331,0 a 0.96783135,0.96781975 0 0 0 -0.44545,0.108002 c -1.06977,0.554515 -1.61638,1.676422 -1.97094,3.048873 -0.21897,0.847437 -0.2787,1.812057 -0.12247,2.783259 -0.89698,-0.110049 -1.78558,-0.07755 -2.59312,0.09146 -1.34414,0.281212 -2.52988,0.81668 -3.12901,1.904255 a 0.96783135,0.96781975 0 0 0 0.0646,1.034551 c 1.0042,1.38567 3.14636,2.228244 6.08284,1.750775 -1.02622,6.126313 -2.91187,9.497891 -5.15059,11.947451 a 0.96783135,0.96781975 0 0 0 0.8015,1.61642 c 0.55841,-0.0502 1.19812,-0.15803 1.84123,-0.33848 -0.15309,0.47578 -0.31041,0.95291 -0.41393,1.41592 a 0.96783135,0.96781975 0 0 0 1.20044,1.1441 c 0.51951,-0.14249 1.00131,-0.35063 1.4609,-0.58962 0.0565,0.49059 0.13887,0.973 0.26561,1.42729 0.27042,0.96966 0.72504,1.90282 1.6552,2.39672 a 0.96783135,0.96781975 0 0 0 0.90692,0 c 0.93023,-0.4939 1.38472,-1.42704 1.6552,-2.39672 0.12674,-0.45432 0.20852,-0.93668 0.26561,-1.42729 0.45991,0.23899 0.94133,0.44714 1.4609,0.58962 a 0.96783135,0.96781975 0 0 0 1.20044,-1.1441 c -0.10353,-0.46303 -0.26072,-0.94013 -0.41444,-1.41592 0.64311,0.18038 1.28352,0.28797 1.84174,0.33848 a 0.96783135,0.96781975 0 0 0 0.8015,-1.61642 c -2.23871,-2.44956 -4.1245,-5.821138 -5.15059,-11.947451 2.93642,0.477469 5.07812,-0.365124 6.08232,-1.750775 a 0.96783135,0.96781975 0 0 0 0.0646,-1.034551 c -0.59919,-1.087575 -1.78436,-1.623051 -3.12849,-1.904255 -0.8075,-0.168963 -1.69616,-0.201456 -2.59313,-0.09146 0.15623,-0.971202 0.0965,-1.935822 -0.12247,-2.783259 -0.35448,-1.372451 -0.90124,-2.494385 -1.97094,-3.048873 a 0.96783135,0.96781975 0 0 0 -0.44545,-0.108002 z m -88.90258,37.998256 h 10e-4 0.002 c 1.48991,0.002 2.68821,1.20102 2.68821,2.69128 v 21.06203 c 5.59493,-7.78296 11.39942,-15.40488 17.47593,-22.8681 0.21897,-0.26903 0.57407,-0.38809 0.91106,-0.30489 13.96766,3.45948 25.15976,10.5345 29.57339,25.08241 17.83196,-3.5573 41.12486,0.29384 54.01065,19.61613 0.51944,0.78264 0.7138,1.66324 0.55759,2.46081 -0.15605,0.79757 -0.62918,1.47355 -1.2454,1.98435 -1.89796,1.57305 -4.69891,2.54193 -7.26571,3.31345 -1.2834,0.38579 -2.50729,0.71228 -3.50831,1.0051 -1.00086,0.29281 -1.80593,0.57916 -2.09445,0.74568 -5.88893,3.39993 -10.46326,7.72594 -13.83171,13.14116 -0.40688,0.65415 -1.11246,1.11234 -1.80919,1.02783 -0.69673,-0.0845 -1.14528,-0.51906 -1.47846,-0.96014 -10.24993,-13.57481 -16.97104,-16.99676 -22.66425,-17.63799 -3.3457,14.38507 -6.90225,28.9318 -17.79065,41.18356 -1.07157,1.20578 -2.49857,1.57077 -3.65714,1.27433 -1.15856,-0.29649 -2.08349,-1.1519 -2.35076,-2.28252 -0.91885,-3.89182 -2.18553,-5.56064 -3.38791,-6.06313 -0.80348,-0.33575 -1.79028,-0.20594 -2.92178,0.2527 v 14.83715 l 11.46183,-0.54156 c 2.21752,-0.10502 3.95745,-0.47514 5.69371,-2.62306 l 4.9413,-6.1117 c 1.14744,-1.41961 2.77809,-2.43979 5.08393,-2.61015 3.07677,-0.22727 10.33565,-1.84138 17.70951,-4.78569 5.69669,-2.2746 11.17802,-5.86255 16.79536,-9.02311 0.86971,-0.48926 1.91475,-0.36412 2.47685,0.324 0.28105,0.34407 0.4126,0.83768 0.31781,1.30378 -0.0945,0.46615 -0.38553,0.87618 -0.79789,1.2025 l -8.98084,7.11679 c -1.26896,1.00526 -2.3357,1.86074 -2.805,3.00598 -5.46744,13.33628 -13.78907,23.46407 -21.92424,33.67403 -1.34549,1.68863 -3.46228,3.06416 -6.92568,3.12897 h -0.006 -0.006 c -0.28869,0 -0.51284,0.0704 -0.8661,0.23357 -0.3531,0.16313 -0.80646,0.42096 -1.42317,0.68729 -1.2336,0.53273 -3.08321,1.05677 -6.27404,1.05677 -4.23516,0 -6.26233,-1.04781 -7.76851,-2.01639 -1.50601,-0.96856 -2.37775,-1.75439 -5.1909,-1.75439 -4.3932,0 -7.36378,1.35997 -10.63811,2.79515 -3.27432,1.43518 -6.84185,2.93105 -12.08402,2.93105 -3.84306,0 -6.60267,-1.71221 -9.15603,-3.31036 -2.55268,-1.59764 -4.89911,-3.07487 -8.1902,-3.10623 -2.19875,8.8e-4 -3.28101,0.60249 -4.81159,1.40713 -1.53174,0.80526 -3.44533,1.78286 -6.8156,2.20449 -2.93467,0.36711 -5.88644,0.57058 -8.85166,0.44442 -2.62424,-0.11161 -5.58592,-1.60349 -7.74268,-3.72531 -2.60365,-2.56096 -4.81217,-4.733 -7.20731,-7.57413 -2.1307,-2.52739 -4.48889,-5.64941 -6.36809,-9.25979 -2.43532,-4.67896 -4.41763,-9.60972 -6.84764,-14.60358 -2.00702,-4.12464 -4.45743,-8.3045 -6.81871,-12.9882 -0.46864,-0.92923 -1.16737,-2.16876 -1.16737,-3.55685 0,-1.03875 0.35354,-2.09648 1.08314,-2.92123 0.7296,-0.82473 1.8542,-1.3813 3.21944,-1.3813 1.64115,0 2.96276,0.77511 3.82251,1.7668 0.85991,0.99168 1.31672,2.17599 1.31672,3.25868 0,0.6314 0.5179,0.93688 0.93689,0.93688 h 3.08043 c 0.36704,0 0.48214,-0.0727 0.59635,-0.17828 0.11421,-0.1056 0.23747,-0.31598 0.35036,-0.65163 0.83983,-2.5014 2.16016,-5.2045 3.45302,-7.29818 v -48.3298 c 0,-1.30583 1.07699,-2.38277 2.3828,-2.38277 1.30598,0 2.38332,1.07648 2.38332,2.38277 v 5.55412 c 2.69098,-0.99879 5.89474,-1.5694 9.26352,-1.5694 8.56595,0 14.03632,3.91423 17.37206,4.71749 2.27994,0.54897 5.50877,0.31526 7.0621,-0.11007 2.05848,-0.56361 3.97967,1.82064 1.96784,3.67673 -2.93667,2.70928 -7.32836,4.82291 -11.67525,6.96435 -0.45237,0.22336 -0.66974,0.79996 -0.23048,1.21593 l 5.33042,5.04821 c 1.84733,1.74852 0.7959,4.61921 -2.71714,3.56977 -4.76573,-1.42365 -10.34399,-2.95018 -15.58252,-2.95018 -4.16709,0 -7.80912,0.95105 -10.78745,2.10734 v 20.40058 c 1.27078,2.12301 2.32059,4.38601 3.2489,6.77935 0.11604,0.29875 0.24442,0.54871 0.4408,0.72295 0.19606,0.17424 0.47319,0.33072 1.11879,0.33072 h 3.18379 c 0.56974,0 1.2454,-0.56903 1.2454,-1.3229 0,-1.05508 0.45644,-2.08579 1.18339,-2.8985 0.72694,-0.8127 1.76996,-1.42315 2.97966,-1.42315 1.21832,0 2.15331,0.79895 2.71043,1.70841 0.55712,0.90945 0.83354,1.97396 0.83354,2.94397 0,2.22939 -1.25638,3.74037 -2.57762,5.45386 -0.4366,0.56574 -0.39922,1.23122 -0.11369,2.00347 2.59984,7.02768 6.84532,12.91805 11.71763,17.28814 1.9026,1.70647 4.15088,2.67136 7.02645,2.53522 l 15.66002,-0.74258 v -24.36566 c -0.21896,-0.008 -0.43578,-0.0344 -0.65474,-0.0388 -7.68729,-0.15493 -15.60347,1.93395 -22.82909,4.18574 -0.82073,0.25575 -1.56527,0.31095 -2.22416,0.13591 -0.65904,-0.17507 -1.20358,-0.60739 -1.51102,-1.14772 -0.61554,-1.08067 -0.43126,-2.40935 0.18811,-3.57597 8.28226,-15.60159 17.2946,-30.33893 27.0309,-44.48099 V 122.5773 c 0,-1.48991 1.19793,-2.68895 2.68718,-2.69128 z m 2.69492,76.92668 v 23.51301 l 13.14081,-0.62269 v -16.61998 c -4.12079,-3.45645 -8.55354,-5.37363 -13.14081,-6.27034 z m 62.69385,40.20068 c 3.60382,0.0685 6.7563,2.54193 11.70006,0.93224 2.52822,-0.82327 3.59766,2.11078 2.17403,3.44264 -4.41873,4.13382 -9.43203,2.62461 -13.87667,2.62461 -5.25226,0 -8.1987,9.82564 -21.45606,9.82564 -3.1793,0 -6.53593,-1.17848 -8.46615,-2.29285 -2.77932,-1.60463 -1.3214,-4.09149 1.47743,-3.81575 2.1923,0.21596 4.30452,0.35401 6.85953,0.33641 9.49367,0 14.85428,-11.05294 21.58783,-11.05294 z m -32.40732,17.20805 c 1.13361,-0.0574 1.20204,1.30214 0.77876,2.1492 -0.61676,1.23466 -3.46128,3.64573 -5.53041,3.64573 -2.43919,0 -3.27109,-0.67592 -4.60437,-0.67592 -2.30479,0 -2.85429,2.237 -7.63003,1.52082 -1.74518,-0.26169 -3.28789,-1.30611 -4.20387,-2.15437 -1.15196,-1.0667 -0.38862,-2.35483 1.12499,-1.97298 1.18571,0.29896 2.35874,0.56791 3.73776,0.56791 2.24801,0 3.15144,-2.80909 5.96966,-2.80909 1.2327,0 3.71891,0.68522 5.83014,0.68522 1.602,0 2.79162,-0.43035 3.97495,-0.83973 0.2071,-0.0717 0.39047,-0.10859 0.55242,-0.11679 z" />
  </g>
</svg>
