<?xml version="1.0" encoding="UTF-8" standalone="no"?>
<!-- Created with Inkscape (http://www.inkscape.org/) -->

<svg
   width="1080"
   height="1350"
   viewBox="0 0 285.75 357.1875"
   version="1.1"
   id="svg5"
   inkscape:version="1.1 (c68e22c387, 2021-05-23)"
   sodipodi:docname="Commonswiki Community Tech Wishlist proposed logo.svg"
   xmlns:inkscape="http://www.inkscape.org/namespaces/inkscape"
   xmlns:sodipodi="http://sodipodi.sourceforge.net/DTD/sodipodi-0.dtd"
   xmlns:xlink="http://www.w3.org/1999/xlink"
   xmlns="http://www.w3.org/2000/svg"
   xmlns:svg="http://www.w3.org/2000/svg">
  <sodipodi:namedview
     id="namedview7"
     pagecolor="#ffffff"
     bordercolor="#666666"
     borderopacity="1.0"
     inkscape:pageshadow="2"
     inkscape:pageopacity="0.0"
     inkscape:pagecheckerboard="0"
     inkscape:document-units="px"
     showgrid="false"
     inkscape:zoom="0.43852551"
     inkscape:cx="540.44747"
     inkscape:cy="674.98924"
     inkscape:window-width="1920"
     inkscape:window-height="974"
     inkscape:window-x="-11"
     inkscape:window-y="-11"
     inkscape:window-maximized="1"
     inkscape:current-layer="g907" />
  <defs
     id="defs2">
    <clipPath
       id="c">
      <circle
         r="298"
         id="circle864" />
    </clipPath>
    <linearGradient
       id="linearGradient3875">
      <stop
         id="stop3877"
         style="stop-color:#acacac;stop-opacity:1"
         offset="0" />
      <stop
         id="stop3881"
         style="stop-color:#e0e0e0;stop-opacity:1"
         offset="0.5" />
      <stop
         id="stop3879"
         style="stop-color:#fefefe;stop-opacity:1"
         offset="1" />
    </linearGradient>
    <linearGradient
       id="linearGradient3833">
      <stop
         id="stop3835"
         style="stop-color:#000000;stop-opacity:1"
         offset="0" />
      <stop
         id="stop3839"
         style="stop-color:#fafafa;stop-opacity:1"
         offset="1" />
    </linearGradient>
    <linearGradient
       id="linearGradient3768">
      <stop
         id="stop3770"
         style="stop-color:#ffff69;stop-opacity:1"
         offset="0" />
      <stop
         id="stop3821"
         style="stop-color:#ffec4b;stop-opacity:1"
         offset="0.5" />
      <stop
         id="stop3772"
         style="stop-color:#ffb500;stop-opacity:1"
         offset="1" />
    </linearGradient>
    <radialGradient
       cx="75.756676"
       cy="79.409828"
       r="7.7824335"
       fx="75.756676"
       fy="79.409828"
       id="radialGradient3774"
       xlink:href="#linearGradient3768"
       gradientUnits="userSpaceOnUse"
       gradientTransform="matrix(1,0,0,1.0070099,0,-0.55665191)" />
    <radialGradient
       cx="54.910736"
       cy="69.01812"
       r="3.888036"
       fx="54.910736"
       fy="69.01812"
       id="radialGradient3790"
       xlink:href="#linearGradient3768"
       gradientUnits="userSpaceOnUse"
       gradientTransform="matrix(1,0,0,1.1690358,0,-11.66653)" />
    <radialGradient
       cx="59.959564"
       cy="29.150284"
       r="24.190638"
       fx="59.959564"
       fy="29.150284"
       id="radialGradient3819"
       xlink:href="#linearGradient3768"
       gradientUnits="userSpaceOnUse"
       gradientTransform="matrix(1,0,0,0.99370773,0,0.18342146)" />
    <linearGradient
       x1="19.435972"
       y1="63.518791"
       x2="26.616615"
       y2="70.730782"
       id="linearGradient3863"
       xlink:href="#linearGradient3833"
       gradientUnits="userSpaceOnUse"
       gradientTransform="matrix(1.1259967,0,0,1.1336915,-1.0084835,-10.760287)" />
    <linearGradient
       x1="46.693333"
       y1="35.646286"
       x2="53.12112"
       y2="42.273518"
       id="linearGradient3873"
       xlink:href="#linearGradient3875"
       gradientUnits="userSpaceOnUse"
       gradientTransform="matrix(1.07,0,0,1.07,-3.7088909,-2.5459187)" />
    <radialGradient
       cx="54.910736"
       cy="69.01812"
       r="3.888036"
       fx="54.910736"
       fy="69.01812"
       id="radialGradient3907"
       xlink:href="#linearGradient3768"
       gradientUnits="userSpaceOnUse"
       gradientTransform="matrix(1,0,0,1.1690358,0,-11.66653)" />
    <radialGradient
       cx="59.959564"
       cy="29.150284"
       r="24.190638"
       fx="59.959564"
       fy="29.150284"
       id="radialGradient3909"
       xlink:href="#linearGradient3768"
       gradientUnits="userSpaceOnUse"
       gradientTransform="matrix(1,0,0,0.99370773,0,0.18342146)" />
    <radialGradient
       cx="59.959564"
       cy="29.150284"
       r="24.190638"
       fx="59.959564"
       fy="29.150284"
       id="radialGradient3923"
       xlink:href="#linearGradient3768"
       gradientUnits="userSpaceOnUse"
       gradientTransform="matrix(1,0,0,0.99370773,0,0.18342146)" />
    <linearGradient
       x1="53.615673"
       y1="42.568626"
       x2="47.109612"
       y2="36.079842"
       id="linearGradient3931"
       xlink:href="#linearGradient3875"
       gradientUnits="userSpaceOnUse"
       gradientTransform="matrix(1.07,0,0,1.07,-3.7088909,-2.5459187)" />
    <linearGradient
       x1="26.187168"
       y1="70.396095"
       x2="18.999882"
       y2="62.993813"
       id="linearGradient3934"
       xlink:href="#linearGradient3833"
       gradientUnits="userSpaceOnUse"
       gradientTransform="matrix(1.1259967,0,0,1.1336915,-1.0084835,-10.760287)" />
    <radialGradient
       cx="59.959564"
       cy="29.150284"
       r="24.190638"
       fx="59.959564"
       fy="29.150284"
       id="radialGradient3937"
       xlink:href="#linearGradient3768"
       gradientUnits="userSpaceOnUse"
       gradientTransform="matrix(1,0,0,0.99370773,0,0.18342146)" />
  </defs>
  <g
     inkscape:label="Layer 1"
     inkscape:groupmode="layer"
     id="layer1">
    <g
       id="g907"
       transform="matrix(0.44398374,0,0,0.44398374,-4.8267812,39.122021)">
      <g
         id="g1068"
         transform="matrix(1.0937732,0,0,1.0630847,-101.08044,-26.061799)">
        <g
           id="g921"
           transform="matrix(0.82671224,0,0,0.79440378,110.33021,33.050839)">
          <circle
             r="100"
             fill="#990000"
             id="circle869"
             cx="346.52991"
             cy="423.98956" />
          <g
             fill="#006699"
             id="g887"
             transform="translate(346.52992,423.98955)">
            <g
               id="arrow"
               clip-path="url(#c)">
              <path
                 d="M -11,180 V 298 H 11 V 180"
                 id="path871" />
              <path
                 d="M -43,185 0,110 43,185"
                 id="path873" />
            </g>
            <g
               id="arrows3">
              <use
                 xlink:href="#arrow"
                 transform="rotate(45)"
                 id="use876"
                 x="0"
                 y="0"
                 width="100%"
                 height="100%" />
              <use
                 xlink:href="#arrow"
                 transform="rotate(90)"
                 id="use878"
                 x="0"
                 y="0"
                 width="100%"
                 height="100%" />
              <use
                 xlink:href="#arrow"
                 transform="rotate(135)"
                 id="use880"
                 x="0"
                 y="0"
                 width="100%"
                 height="100%" />
            </g>
            <use
               xlink:href="#arrows3"
               transform="scale(-1,1)"
               id="use883"
               x="0"
               y="0"
               width="100%"
               height="100%" />
            <path
               id="blue_path"
               transform="rotate(-45)"
               stroke="#006699"
               stroke-width="84"
               fill="none"
               d="M 0,-256 A 256,256 0 1 0 256,0 c 0,-100 -101,-150 -6,-275" />
            <path
               id="arrow_top"
               d="m -23,-515 c 0,0 -36,135 -80,185 -44,50 116,-62 170,-5 54,57 -90,-180 -90,-180 z" />
          </g>
        </g>
        <g
           id="g3945"
           transform="matrix(4.0096517,0,0,4.9195126,148.22681,223.93943)">
          <g
             id="g3889">
            <path
               d="m 74.591661,84.29481 c -0.99747,-2.66721 -1.083214,-2.752761 -3.707947,-3.699602 -1.072052,-0.386729 -2.458634,-1.180825 -2.458634,-1.180825 0,0 0.949738,-0.487751 2.256721,-0.97653 2.606108,-0.97462 3.150511,-1.54431 4.160937,-4.354212 0.372969,-1.037189 0.913941,-1.885799 0.913941,-1.885799 0,0 0.540972,0.84861 0.91394,1.885799 1.010427,2.809902 1.55483,3.379592 4.160938,4.354212 1.306983,0.488779 2.159261,1.012088 2.159261,1.012088 0,0 -1.289122,0.732565 -2.361175,1.11975 -2.606801,0.941481 -2.74577,1.079172 -3.779289,3.744539 -0.492133,1.269173 -1.141618,2.307587 -1.141618,2.307587 0,0 -0.638441,-1.047153 -1.117075,-2.327007 z"
               id="path3766"
               style="fill:url(#radialGradient3774);fill-opacity:1;stroke:#ffb500;stroke-width:1.25;stroke-linecap:round;stroke-linejoin:miter;stroke-miterlimit:4;stroke-dasharray:none;stroke-opacity:1" />
            <path
               d="m 86.73025,78.65657 -7.298,-2.88 -2.88,-7.297 c -0.261,-0.666 -1.354,-0.666 -1.616,0 l -2.88,7.297 -7.297,2.88 c -0.333,0.129 -0.55,0.452 -0.55,0.809 0,0.357 0.217,0.679 0.55,0.808 l 7.297,2.88 2.88,7.298 c 0.129,0.332 0.452,0.55 0.809,0.55 0.357,0 0.679,-0.218 0.808,-0.55 l 2.88,-7.298 7.298,-2.88 c 0.332,-0.129 0.55,-0.451 0.55,-0.808 0,-0.357 -0.218,-0.68 -0.551,-0.809 z m -8.286,3.019 c -0.224,0.089 -0.4,0.266 -0.489,0.489 l -2.21,5.6 -2.211,-5.6 c -0.088,-0.224 -0.265,-0.4 -0.489,-0.489 l -5.6,-2.21 5.6,-2.211 c 0.225,-0.088 0.401,-0.265 0.489,-0.489 l 2.211,-5.6 2.21,5.6 c 0.089,0.225 0.266,0.401 0.489,0.489 l 5.6,2.211 z"
               id="path8" />
          </g>
          <g
             id="g3893">
            <path
               d="m 54.343469,71.543268 c -0.339138,-0.937868 -0.87355,-1.534412 -1.630585,-1.820161 -0.690406,-0.260599 -1.512306,-0.7074 -1.512306,-0.7074 0,0 0.783015,-0.388455 1.514006,-0.643276 0.803082,-0.279952 1.264682,-0.807948 1.603263,-1.833857 l 0.578848,-1.337338 0.5896,1.444431 c 0.435838,1.067738 1.018481,1.629501 1.710354,1.803149 0.608918,0.152828 1.317581,0.555239 1.317581,0.555239 0,0 -0.618132,0.4602 -1.300011,0.631341 -0.669227,0.167966 -1.225717,0.755512 -1.683031,1.776956 l -0.68322,1.526019 -0.504475,-1.395103 v 0 z"
               id="path2996"
               style="fill:url(#radialGradient3907);fill-opacity:1;stroke:#ffb500;stroke-width:1;stroke-linecap:round;stroke-linejoin:miter;stroke-miterlimit:4;stroke-dasharray:none;stroke-opacity:1" />
            <path
               d="m 62.03325,68.22557 -4.544,-1.8 -1.8,-4.543 c -0.261,-0.666 -1.354,-0.666 -1.616,0 l -1.8,4.543 -4.543,1.8 c -0.333,0.129 -0.55,0.452 -0.55,0.809 0,0.357 0.217,0.679 0.55,0.808 l 4.543,1.793 1.8,4.551 c 0.129,0.332 0.452,0.55 0.809,0.55 0.357,0 0.679,-0.218 0.808,-0.55 l 1.8,-4.551 4.544,-1.793 c 0.333,-0.129 0.55,-0.451 0.55,-0.808 0,-0.357 -0.218,-0.681 -0.551,-0.809 z m -5.535,1.932 c -0.225,0.088 -0.4,0.265 -0.489,0.488 l -1.127,2.853 -1.128,-2.853 c -0.088,-0.224 -0.265,-0.4 -0.488,-0.488 l -2.85,-1.124 2.85,-1.128 c 0.224,-0.088 0.4,-0.265 0.488,-0.488 l 1.128,-2.853 1.127,2.853 c 0.089,0.224 0.265,0.4 0.489,0.488 l 2.849,1.128 z"
               id="path10" />
          </g>
          <g
             id="g3939">
            <path
               d="m 57.530897,47.691349 -1.864649,-5.533608 3.200781,-3.178185 c 1.923858,-1.910276 3.346444,-3.489226 3.565905,-3.957857 0.446927,-0.954346 0.487419,-2.761561 0.08353,-3.728194 -0.40822,-0.977008 -2.932033,-3.521549 -4.095514,-4.129149 -1.230607,-0.642654 -3.134899,-0.709876 -4.19075,-0.147934 -0.375218,0.1997 -1.973582,1.635461 -3.551919,3.190582 l -2.869705,2.827495 -5.219416,-2.005395 c -2.87068,-1.102966 -5.557672,-2.138302 -5.971096,-2.300745 l -0.751679,-0.295352 6.063057,-1.993193 c 3.334682,-1.096253 6.194696,-2.10244 6.355588,-2.235969 0.160892,-0.133528 0.292532,-0.431681 0.292532,-0.662561 0,-0.23088 -1.140274,-2.982645 -2.533942,-6.115033 -1.393668,-3.132388 -2.533942,-5.745242 -2.533942,-5.806341 0,-0.0611 2.623953,1.225246 5.831007,2.858546 5.579534,2.841565 5.850636,2.956764 6.286125,2.671175 0.422636,-0.27716 1.417336,-2.158841 5.122837,-11.8933842 l 1.952551,5.6441252 c 1.153099,3.333196 2.114869,6.222691 2.248398,6.383583 0.133529,0.160892 0.397992,0.292531 0.587699,0.292531 0.189706,0 2.991035,-1.177925 6.225175,-2.617612 3.23414,-1.439687 5.853085,-2.558032 5.819877,-2.485212 -0.03321,0.07282 -1.354148,2.694767 -2.935425,5.826548 -1.581277,3.131782 -2.875049,5.815373 -2.875049,5.963537 0,0.148164 0.153498,0.399983 0.341107,0.559598 0.187609,0.159615 2.95058,1.286946 6.139935,2.505181 3.189356,1.218233 5.798828,2.265332 5.798828,2.326882 0,0.06155 -2.76171,1.010709 -6.13713,2.109239 -5.695851,1.853713 -6.146124,2.033157 -6.262196,2.495628 -0.09596,0.382337 0.470902,1.840076 2.435876,6.264058 1.408519,3.171167 2.521743,5.804958 2.473832,5.852869 -0.04791,0.04791 -2.629052,-1.205069 -5.735869,-2.784401 -4.338825,-2.205614 -5.759089,-2.843821 -6.124534,-2.7521 -0.42127,0.105732 -0.738904,0.806431 -2.772659,6.116459 -1.263287,3.298378 -2.350351,6.057967 -2.415702,6.132422 -0.06535,0.07446 -0.95791,-2.354751 -1.983468,-5.398233 z"
               id="path3811"
               style="fill:url(#radialGradient3937);fill-opacity:1;stroke:#ffb500;stroke-width:1.875;stroke-linecap:round;stroke-linejoin:miter;stroke-miterlimit:4;stroke-dasharray:none;stroke-opacity:1" />
            <path
               d="M 5.9533008,86.92618 C 4.8520644,86.245645 2.4117062,83.482573 2.2665653,82.751911 1.9503634,81.160096 1.5970085,81.54899 22.247867,60.760978 l 15.703075,-15.833936 3.179125,3.206574 3.17913,3.206572 L 28.77733,67.020186 C 18.045288,77.854582 8.9787674,86.842955 8.6528019,87.017455 7.8422348,87.451378 6.7430282,87.414213 5.9533008,86.92618 Z"
               id="path3823"
               style="fill:url(#linearGradient3934);fill-opacity:1;stroke:#0053b1;stroke-width:0;stroke-linecap:round;stroke-linejoin:miter;stroke-miterlimit:4;stroke-dasharray:none;stroke-opacity:1" />
            <path
               d="m 41.560058,47.810062 -3.023908,-3.030199 8.34226,-8.325561 c 9.355344,-9.336616 9.060001,-9.115759 10.891154,-8.144336 1.177623,0.624728 3.416027,3.212798 3.666285,4.119158 0.409927,1.484633 0.340328,1.158017 -8.483286,10.012892 l -8.368598,8.398246 z"
               id="path3865"
               style="fill:url(#linearGradient3931);fill-opacity:1;stroke:#0053b1;stroke-width:0;stroke-linecap:round;stroke-linejoin:miter;stroke-miterlimit:4;stroke-dasharray:none;stroke-opacity:1" />
            <path
               d="m 87.58225,28.92057 -13.59,-5.227 6.574,-12.992 c 0.17,-0.325 0.109,-0.7230002 -0.143,-0.9910002 -0.254,-0.265 -0.645,-0.347 -0.984,-0.193 l -13.298,5.9220002 -4.54,-13.8380002 c -0.111,-0.346 -0.438,-0.587 -0.805,-0.598 -0.476,-0.037 -0.699,0.218 -0.832,0.558 l -5.218,13.5880002 -12.985,-6.5730002 c -0.326,-0.167 -0.724,-0.112 -0.991,0.143 -0.266,0.255 -0.344,0.648 -0.194,0.984 l 5.919,13.2980002 -13.841,4.536 c -0.347,0.116 -0.587,0.435 -0.598,0.802 -0.007,0.37 0.214,0.703 0.557,0.835 l 13.964,5.358 -14.181,14.181 h 0.003 l -30.11,30.106 c -1.719,1.719 -1.719,4.51 0,6.231 l 2.071,2.074 c 0.862,0.859 1.99,1.291 3.121,1.291 1.127,0 2.255,-0.432 3.113,-1.291 l 32.389,-32.381 -0.004,-0.004 11.169,-11.168 4.441,12.938 c 0.119,0.347 0.441,0.581 0.809,0.587 0.003,0 0.006,0 0.014,0 0.359,0 0.682,-0.221 0.811,-0.557 l 5.229,-13.6 12.982,6.581 c 0.325,0.163 0.727,0.108 0.991,-0.149 0.269,-0.252 0.347,-0.646 0.197,-0.981 l -5.916,-13.301 13.835,-4.53 c 0.346,-0.115 0.587,-0.441 0.598,-0.809 0.007,-0.365 -0.213,-0.698 -0.557,-0.83 z m -45.832,24.591 c -0.03,0.031 -0.058,0.062 -0.084,0.092 l -32.301,32.292 c -0.502,0.503 -1.175,0.781 -1.884,0.781 -0.717,0 -1.39,-0.278 -1.892,-0.781 l -2.071,-2.07 c -1.039,-1.047 -1.039,-2.737 0,-3.776 l 30.106,-30.106 4.488,-4.489 5.848,5.848 1.229,-1.229 -5.848,-5.848 15.081,-15.08 c 0.506,-0.502 1.178,-0.781 1.891,-0.781 0.347,0 0.687,0.071 1.002,0.197 0.326,0.133 0.625,0.322 0.88,0.581 l 0.987,0.987 1.091,1.091 c 0.468,0.472 0.72,1.093 0.754,1.752 0.003,0.048 0.026,0.088 0.026,0.136 0,0.618 -0.244,1.188 -0.631,1.664 -0.059,0.067 -0.085,0.156 -0.149,0.217 z m 30.504,-19.773 c -0.237,0.074 -0.428,0.248 -0.526,0.472 -0.099,0.228 -0.099,0.482 0,0.706 l 5.314,11.95 -11.661,-5.909 c -0.217,-0.108 -0.475,-0.129 -0.706,-0.037 -0.23,0.088 -0.411,0.269 -0.499,0.499 l -4.717,12.266 -3.912,-11.512 5.956,-5.956 c 0.388,-0.387 0.663,-0.842 0.876,-1.317 0.728,-1.616 0.455,-3.579 -0.876,-4.91 l -2.078,-2.078 c -0.278,-0.278 -0.621,-0.441 -0.95,-0.632 -0.673,-0.387 -1.399,-0.655 -2.16,-0.655 -1.127,0 -2.255,0.432 -3.117,1.287 l -5.256,5.256 -0.714,-0.244 -11.708,-4.497 12.428,-4.074 c 0.238,-0.075 0.428,-0.248 0.526,-0.473 0.099,-0.227 0.099,-0.481 0,-0.706 l -5.314,-11.943 11.66,5.901 c 0.218,0.112 0.476,0.126 0.703,0.038 0.228,-0.089 0.411,-0.269 0.499,-0.5 l 4.689,-12.2040002 4.078,12.4290002 c 0.075,0.23 0.248,0.421 0.473,0.522 0.228,0.099 0.481,0.099 0.706,0 l 11.942,-5.317 -5.907,11.669 c -0.108,0.217 -0.122,0.475 -0.034,0.703 0.088,0.227 0.271,0.41 0.499,0.499 l 12.208,4.692 z"
               id="path12" />
          </g>
        </g>
      </g>
    </g>
  </g>
</svg>
